<?xml version="1.0" encoding="UTF-8"?>
<svg width="100px" height="100px" viewBox="0 0 100 100" version="1.1" xmlns="http://www.w3.org/2000/svg" xmlns:xlink="http://www.w3.org/1999/xlink">
    <!-- Generator: sketchtool 57.1 (101010) - https://sketch.com -->
    <title>77B3A149-8E47-45E7-BF3F-74A7E84464F8</title>
    <desc>Created with sketchtool.</desc>
    <g id="Page-1" stroke="none" stroke-width="1" fill="none" fill-rule="evenodd">
        <g id="6" transform="translate(-154.000000, -1092.000000)" fill="#3F3F3F" fill-rule="nonzero">
            <g id="Group-19" transform="translate(154.000000, 1092.000000)">
                <g id="house">
                    <g>
                        <path d="M7.69492174,74.8734386 C7.90156237,74.9583996 8.11816393,75.0000011 8.333203,75.0000011 C8.76660144,75.0000011 9.19316395,74.8300792 9.51152333,74.5117199 L36.6714847,47.3533212 L63.8216804,74.5117199 C64.2966804,74.9884777 65.013282,75.1316417 65.638282,74.8734386 C66.2599617,74.6150402 66.6666023,74.0068371 66.6666023,73.3333993 L66.6666023,51.6666025 C66.6666023,50.7466806 65.9199226,50.0000009 65.0000008,50.0000009 C64.0800789,50.0000009 63.3333992,50.7466806 63.3333992,51.6666025 L63.3333992,69.3082042 L37.8550785,43.8216805 C37.2300784,43.1966805 36.1134769,43.1966805 35.4884769,43.8216805 L10.0001952,69.309962 L10.0001952,50.0000009 L18.3335938,50.0000009 C19.2535157,50.0000009 20.0001954,49.2533212 20.0001954,48.3333993 L20.0001954,46.6667978 L23.3335939,46.6667978 L23.3335939,48.3333993 C23.3335939,49.2533212 24.0802736,50.0000009 25.0001954,50.0000009 C25.9201173,50.0000009 26.6667967,49.2533212 26.6667967,48.3333993 L26.6667967,45.0000009 C26.6667967,44.080079 25.9201173,43.3333993 25.0001954,43.3333993 L18.3333985,43.3333993 C17.4134766,43.3333993 16.6667967,44.080079 16.6667967,45.0000009 L16.6667967,46.6666024 L8.33339831,46.6666024 C7.41347642,46.6666024 6.66679665,47.4132821 6.66679665,48.333204 L6.66679665,73.3332042 C6.66679665,74.0066417 7.07324204,74.6150402 7.69492174,74.8734386 Z" id="Path"></path>
                        <path d="M46.8316411,34.9882795 C46.7283208,36.5400372 46.666602,38.1982402 46.666602,40 C46.666602,48.3482397 49.1582035,53.3333957 53.3332035,53.3333957 C58.5964846,53.3333957 59.9998049,47.0484351 59.9998049,43.3333962 C59.9998049,42.4134744 59.2531252,41.6667948 58.3332034,41.6667948 C57.4132815,41.6667948 56.6666018,42.4134744 56.6666018,43.3333962 C56.6666018,43.3999978 56.5232425,50 53.3332035,50 C51.4015629,50 49.9998051,45.7949195 49.9998051,40 C49.9998051,20.5683583 56.8197268,18.3550772 57.0347659,18.2933584 C57.9130862,18.0933585 58.4781252,17.2283194 58.2998049,16.3400382 C58.1214846,15.4382805 57.2498049,14.8517571 56.339844,15.0333977 C56.0064456,15.0999992 54.7982425,15.4167961 53.3449222,16.6617179 C53.34668,16.3749992 53.3699222,16.0884757 53.44668,15.8033195 C53.6767581,14.9433586 54.2283206,14.2249993 55.0000006,13.7800774 C55.77168,13.3351556 56.6699221,13.2167962 57.5283206,13.446679 C58.3882815,13.6783196 59.1083987,14.2300774 59.5515627,15 C60.4714846,16.5916007 59.9248049,18.63496 58.3332034,19.5533193 C57.5349612,20.015038 57.2632815,21.0349599 57.7232424,21.8316395 C58.0316409,22.3650379 58.5916018,22.6632801 59.1681643,22.6632801 C59.4515627,22.6632801 59.7380861,22.5916004 59.9998049,22.4400379 C63.1832033,20.599999 64.2765626,16.5150382 62.4398439,13.3333978 C61.5498049,11.7917963 60.1115236,10.688476 58.3916018,10.2267573 C56.6683596,9.76503856 54.8732425,10.0035151 53.3332035,10.8933588 C51.7916019,11.7833978 50.6882816,13.221679 50.2265629,14.9416008 C49.7949223,16.5515617 49.9998051,18.2232413 50.7832035,19.7449209 C49.3531254,22.0716786 48.016602,25.5365221 47.2732426,30.6898422 C44.7783208,27.7015611 43.3332037,23.8949207 43.3332037,19.9998037 C43.3332037,10.8097651 50.8099613,3.33320296 59.9998049,3.33320296 C69.1896485,3.33320296 76.6664061,10.8099604 76.6664061,19.9998037 C76.6664061,29.1896469 69.1896485,36.6664044 59.9998049,36.6664044 C58.189844,36.6664044 56.4097659,36.3781231 54.7115237,35.8113263 C53.8416019,35.5212873 52.8949222,35.9914044 52.6031253,36.8630841 C52.309766,37.7363262 52.7814457,38.6796855 53.6548831,38.9714824 C55.6949222,39.653123 57.8298831,39.9998026 59.9998049,39.9998026 C71.028125,39.9998026 79.9998045,31.0281234 79.9998045,19.9998037 C79.9998045,8.97167923 71.0283203,0 60.0000006,0 C48.9716801,0 40.0000006,8.97167923 40.0000006,20 C40.0000006,25.6833971 42.5517584,31.206639 46.8316411,34.9882795 Z" id="Path"></path>
                        <path d="M99.5117158,48.8216789 L82.2017549,31.5117176 C81.5517549,30.8617176 80.4966768,30.8617176 79.8451143,31.5117176 C79.1951143,32.1634754 79.1951143,33.2183583 79.8451143,33.8683583 L96.6667939,50.6900383 L96.6667939,56.6667962 L90.6900361,56.6667962 L89.9999971,55.9767571 L89.9999971,51.6667961 C89.9999971,50.7468742 89.2533174,50.0001945 88.3333955,50.0001945 L86.6667939,50.0001945 L86.6667939,48.3335929 C86.6667939,47.413671 85.9201143,46.6669913 85.0001924,46.6669913 L80.691794,46.6669913 L80.0001924,45.9753898 L80.0001924,41.6669912 C80.0001924,40.7470694 79.2535127,40.0003897 78.3335909,40.0003897 L74.0234346,40.0003897 L73.8617159,39.8386709 C73.2117159,39.1886709 72.1566378,39.1886709 71.5050753,39.8386709 C70.8550753,40.4904287 70.8550753,41.5453116 71.5050753,42.1953116 L72.1550753,42.8453116 C72.466794,43.1585928 72.891794,43.3335928 73.3333956,43.3335928 L76.666794,43.3335928 L76.666794,46.6652335 C76.666794,47.1068351 76.841794,47.5302726 77.1535127,47.8419914 L78.8201143,49.5119133 C79.1333955,49.8251945 79.556833,50.0001945 80.0001924,50.0001945 L83.3335908,50.0001945 L83.3335908,51.6667961 C83.3335908,52.586718 84.0802705,53.3333977 85.0001924,53.3333977 L86.6667939,53.3333977 L86.6667939,56.6667962 C86.6667939,57.1083978 86.8417939,57.5333978 87.1550752,57.8451166 L88.8216768,59.5117181 C89.1333955,59.8249994 89.5583955,59.9999994 89.9999971,59.9999994 L98.3333955,59.9999994 C99.2533173,59.9999994 99.999997,59.2533197 99.999997,58.3333978 L99.999997,49.9999992 C99.999997,49.5583976 99.824997,49.1333976 99.5117158,48.8216789 Z" id="Path"></path>
                        <path d="M41.6666021,73.3334005 C40.7466803,73.3334005 40.0000006,74.0800802 40.0000006,75.0000021 L40.0000006,88.3334005 C40.0000006,89.2533224 40.7466803,90.0000021 41.6666021,90.0000021 L51.666602,90.0000021 C52.5865238,90.0000021 53.3332035,89.2533224 53.3332035,88.3334005 L53.3332035,75.0000021 C53.3332035,74.0800802 52.5865238,73.3334005 51.666602,73.3334005 L41.6666021,73.3334005 Z M50.0000004,86.6666036 L43.3333989,86.6666036 L43.3333989,76.6666036 L50.0000004,76.6666036 L50.0000004,86.6666036 Z" id="Shape"></path>
                        <path d="M98.3333971,96.6666045 L80,96.6666045 L80,89.8316435 C83.798241,89.0566434 86.6666004,85.6916043 86.6666004,81.6666043 C86.6666004,81.4500027 86.5716785,60.0000024 78.333202,60.0000024 C70.0949209,60.0000024 69.9998037,81.4500027 69.9998037,81.6666043 C69.9998037,85.6916043 72.8681631,89.0566434 76.6664052,89.8316435 L76.6664052,96.6666045 L63.3330069,96.6666045 L63.3330069,77.5000024 C63.3330069,76.5800808 62.5863273,75.8334011 61.6664054,75.8334011 C60.7464835,75.8334011 59.9998039,76.5800808 59.9998039,77.5000024 L59.9998039,96.6666045 L36.6666011,96.6666045 L36.6666011,75.0000024 C36.6666011,74.0800807 35.9199214,73.333401 35,73.333401 L21.6666013,73.333401 C20.7466794,73.333401 20,74.0800807 20,75.0000024 L20,96.6666045 L13.3333983,96.6666045 L13.3333983,77.5000024 C13.3333983,76.5800808 12.5867186,75.8334011 11.6667967,75.8334011 C10.7468749,75.8334011 10,76.5800808 10,77.5000024 L10,96.6666045 L1.66660154,96.6666045 C0.746679677,96.6666045 0,97.4132842 0,98.3332061 C0,99.253128 0.746679677,100.000002 1.66660154,100.000002 L98.3332018,100.000002 C99.2531236,100.000002 99.9998033,99.2533233 99.9998033,98.3334014 C99.9998033,97.4134795 99.2533189,96.6666045 98.3333971,96.6666045 Z M33.333399,85.0000025 L31.6667976,85.0000025 C30.7468757,85.0000025 30.000196,85.7466822 30.000196,86.666604 C30.000196,87.586526 30.7468757,88.3332057 31.6667976,88.3332057 L33.333399,88.3332057 L33.333399,96.666604 L23.333399,96.666604 L23.333399,76.666604 L33.333399,76.666604 L33.333399,85.0000025 Z M73.3334005,81.6666044 C73.3334005,73.3632839 75.5634786,63.3332055 78.3334005,63.3332055 C81.1033225,63.3332055 83.3334005,73.3632839 83.3334005,81.6666044 C83.3334005,84.4232451 81.0900412,86.6666045 78.3334005,86.6666045 C75.5767599,86.6666045 73.3334005,84.4232451 73.3334005,81.6666044 Z" id="Shape"></path>
                    </g>
                </g>
            </g>
        </g>
    </g>
</svg>