<?xml version="1.0" encoding="UTF-8"?>
<svg width="100px" height="86px" viewBox="0 0 100 86" version="1.1" xmlns="http://www.w3.org/2000/svg" xmlns:xlink="http://www.w3.org/1999/xlink">
    <!-- Generator: sketchtool 57.1 (101010) - https://sketch.com -->
    <title>AA8399EC-D893-42DA-9DBC-09420075EDDC</title>
    <desc>Created with sketchtool.</desc>
    <g id="Page-1" stroke="none" stroke-width="1" fill="none" fill-rule="evenodd">
        <g id="6" transform="translate(-726.000000, -1102.000000)" fill="#3F3F3F" fill-rule="nonzero">
            <g id="Group-20" transform="translate(726.000000, 1095.000000)">
                <g id="bed" transform="translate(0.000000, 7.000000)">
                    <path d="M95.5947875,0 C93.1655883,0 91.1888123,1.98630269 91.1888123,4.42815113 L91.1888123,22.342453 C89.5401,21.286415 87.6121521,20.7127647 85.5918885,20.7127647 L82.2097777,20.7127647 L82.2097777,17.9603168 C82.2097777,15.4816566 80.20401,13.4654445 77.7381896,13.4654445 C75.2723693,13.4654445 73.2666016,15.4816566 73.2666016,17.9603168 L73.2666016,19.2563983 L64.8979188,19.2563983 L64.8979188,17.9603168 C64.8979188,15.4816566 62.8921508,13.4654445 60.4263305,13.4654445 C57.9612732,13.4654445 55.9547424,15.4816566 55.9547424,17.9603168 L55.9547424,20.7127647 L41.4741516,20.7127647 C40.0894164,15.2615527 35.1165771,11.2920152 29.4158936,11.2920152 L23.527527,11.2920152 C17.8260803,11.2920152 12.8540039,15.2615527 11.4692687,20.7127647 L10.1852418,20.7127647 C9.71755977,20.7127647 9.25521855,20.7748845 8.8111877,20.8952899 L8.8111877,4.42815113 C8.8111877,1.98630269 6.83517461,0 4.40597539,0 C1.97601328,0 0,1.98630269 0,4.42815113 L0,65.8363447 C0,66.653873 0.658416797,67.3157183 1.47171016,67.3157183 C2.28500371,67.3157183 2.94342031,66.653873 2.94342031,65.8363447 L2.94342031,4.42815113 C2.94342031,3.61829185 3.59954844,2.95874716 4.40597539,2.95874716 C5.21163945,2.95874716 5.86776738,3.61829185 5.86776738,4.42815113 L5.86776738,29.9801317 C5.86776738,29.9816656 5.8670043,29.9824324 5.8670043,29.9839662 C5.8670043,29.984733 5.86776738,29.986267 5.86776738,29.9870338 L5.86776738,39.4568656 C5.86776738,39.4583996 5.8670043,39.4599333 5.8670043,39.4599333 C5.8670043,39.4622341 5.86776738,39.4637678 5.86776738,39.4637678 L5.86776738,81.4629476 C5.86776738,82.2735738 5.21163945,82.9323512 4.40597539,82.9323512 C3.59954844,82.9323512 2.94342031,82.2735738 2.94342031,81.4629476 L2.94342031,72.3451284 C2.94342031,71.5283669 2.28500371,70.8657548 1.47171016,70.8657548 C0.658416797,70.8657548 0,71.5283669 0,72.3458954 L0,81.4637145 C0,83.9055629 1.97601328,85.8918654 4.4052125,85.8918654 C6.83441172,85.8918654 8.8111877,83.9055629 8.8111877,81.4637145 L8.8111877,75.26553 L55.9547424,75.26553 L55.9547424,81.5051277 C55.9547424,83.9837879 57.9605102,86 60.4263305,86 C62.8921508,86 64.8979188,83.9837879 64.8979188,81.5051277 L64.8979188,77.3845085 L73.2658387,77.3845085 L73.2658387,81.5051277 C73.2658387,83.9837879 75.2723693,86 77.7374268,86 C80.2032471,86 82.2090148,83.9837879 82.2090148,81.5051277 L82.2090148,75.26553 L91.1888123,75.26553 L91.1888123,81.4637145 C91.1888123,83.9055629 93.1648254,85.8918654 95.5940246,85.8918654 C98.0232238,85.8918654 100,83.9055629 100,81.4637145 L100,4.42815113 C100,1.98630269 98.0239867,0 95.5947875,0 Z M82.2097777,40.9408408 L91.1888123,40.9408408 L91.1888123,56.6671422 C89.5401,55.6111042 87.6121521,55.036687 85.5911254,55.036687 L82.2097777,55.036687 L82.2097777,40.9408408 Z M91.1888123,37.9813266 L82.2097777,37.9813266 L82.2097777,31.4633398 L91.1888123,31.4633398 L91.1888123,37.9813266 Z M82.2097777,57.9962012 L85.5918885,57.9962012 C87.7532959,57.9962012 89.7659301,58.9118943 91.1888123,60.523177 L91.1888123,62.8285149 L82.2097777,62.8285149 L82.2097777,57.9962012 Z M85.5911254,23.6715118 C87.752533,23.6715118 89.7659301,24.5872051 91.1888123,26.1992544 L91.1888123,28.5045926 L82.2097777,28.5045926 L82.2097777,23.6715118 L85.5911254,23.6715118 Z M55.9547424,55.036687 L41.8594359,55.036687 L41.8594359,54.721486 C41.8594359,52.8939342 41.4756775,51.1315701 40.7188416,49.4842427 C40.3778076,48.7418717 39.5034789,48.4182348 38.7657166,48.7610444 C38.0271912,49.1030874 37.7052307,49.9827357 38.0462646,50.7243397 C38.6230469,51.9805419 38.9152527,53.324939 38.9152527,54.721486 L38.9152527,55.036687 L14.0274047,55.036687 L14.0274047,54.721486 C14.0274047,49.455867 18.2891846,45.1726624 23.5267639,45.1726624 L29.4158936,45.1726624 C31.1759949,45.1726624 32.8941346,45.6596515 34.3849182,46.580713 C35.0769043,47.0086501 35.9832764,46.7916139 36.4097596,46.0960245 C36.8354797,45.3996684 36.6188049,44.4885765 35.9268188,44.0606396 C33.972168,42.851986 31.7207336,42.2131482 29.4158936,42.2131482 L23.5267639,42.2131482 C16.6656494,42.2131482 11.0839844,47.8246447 11.0839844,54.721486 L11.0839844,55.036687 L10.1852418,55.036687 C9.65805059,55.036687 9.21249395,55.1179798 8.8111877,55.2698283 L8.8111877,40.9408408 L55.9547424,40.9408408 L55.9547424,55.036687 Z M8.8111877,58.4417772 C9.2086793,58.1549521 9.68933105,57.9962012 10.1852418,57.9962012 L55.9547424,57.9962012 L55.9547424,62.8292818 L8.8111877,62.8292818 L8.8111877,58.4417772 Z M23.5267639,14.2507626 L29.4158936,14.2507626 C33.5105896,14.2507626 37.1139527,16.9311206 38.4063721,20.7119978 L14.5362854,20.7119978 C15.8287049,16.9311206 19.432068,14.2507626 23.5267639,14.2507626 Z M10.1852418,23.6715118 L55.9547424,23.6715118 L55.9547424,28.5045926 L20.4574586,28.5045926 C19.644165,28.5045926 18.9857482,29.1664379 18.9857482,29.9839662 C18.9857482,30.8014947 19.644165,31.4633398 20.4574586,31.4633398 L55.9547424,31.4633398 L55.9547424,37.9820936 L8.8111877,37.9820936 L8.8111877,31.4633398 L13.6848449,31.4633398 C14.4973754,31.4633398 15.1565551,30.8014947 15.1565551,29.9839662 C15.1565551,29.1664379 14.4973754,28.5045926 13.6848449,28.5045926 L8.8111877,28.5045926 L8.8111877,24.117088 C9.2086793,23.8302627 9.68933105,23.6715118 10.1852418,23.6715118 Z M8.8111877,72.3060158 L8.8111877,65.7880292 L55.9547424,65.7880292 L55.9547424,72.3060158 L8.8111877,72.3060158 Z M79.2663574,81.5051277 C79.2663574,82.3517987 78.5804748,83.040486 77.7381896,83.040486 C76.8959045,83.040486 76.2100219,82.3517987 76.2100219,81.5051277 L76.2100219,75.904368 C76.2100219,75.0876064 75.5516053,74.4249942 74.7383117,74.4249942 L63.4262086,74.4249942 C62.6136779,74.4249942 61.9544982,75.0868395 61.9544982,75.904368 L61.9544982,81.5051277 C61.9544982,82.3517987 61.2686156,83.040486 60.4263305,83.040486 C59.5840453,83.040486 58.8989258,82.3517987 58.8989258,81.5051277 L58.8989258,17.9595498 C58.8989258,17.1128787 59.5840453,16.4241916 60.4263305,16.4241916 C61.2686156,16.4241916 61.9544982,17.1128787 61.9544982,17.9595498 L61.9544982,20.7357721 C61.9544982,21.5525336 62.612915,22.2151457 63.4262086,22.2151457 L74.7383117,22.2151457 C75.5508422,22.2151457 76.2100219,21.5525336 76.2100219,20.7357721 L76.2100219,17.9595498 C76.2100219,17.1128787 76.8959045,16.4241916 77.7381896,16.4241916 C78.5804748,16.4241916 79.2663574,17.1128787 79.2663574,17.9595498 L79.2663574,81.5051277 Z M82.2097777,72.3060158 L82.2097777,65.7880292 L91.1888123,65.7880292 L91.1888123,72.3060158 L82.2097777,72.3060158 Z M97.0565797,81.4637145 C97.0565797,82.2735738 96.4004516,82.9331183 95.5940246,82.9331183 C94.7883605,82.9331183 94.1322326,82.2735738 94.1322326,81.4637145 L94.1322326,4.42815113 C94.1322326,3.61829185 94.7883605,2.95874716 95.5940246,2.95874716 C96.4004516,2.95874716 97.0565797,3.61829185 97.0565797,4.42815113 L97.0565797,81.4637145 Z" id="Shape"></path>
                    <path d="M74.0107846,41.5824176 L62.7816684,41.5824176 C61.9743413,41.5824176 61.3207547,42.242924 61.3207547,43.05709 L61.3207547,53.3385145 C61.3207547,54.1526804 61.9743413,54.8131868 62.7816684,54.8131868 L74.0107846,54.8131868 C74.8173542,54.8131868 75.4716981,54.1526804 75.4716981,53.3385145 L75.4716981,43.05709 C75.4716981,42.242924 74.8173542,41.5824176 74.0107846,41.5824176 L74.0107846,41.5824176 Z M72.5498711,51.8638423 L64.2425819,51.8638423 L64.2425819,44.5317623 L72.5498711,44.5317623 L72.5498711,51.8638423 Z" id="Shape"></path>
                    <path d="M74.0107846,57.6483516 L62.7816684,57.6483516 C61.9743413,57.6483516 61.3207547,58.3030246 61.3207547,59.111694 L61.3207547,69.4157786 C61.3207547,70.2244477 61.9743413,70.8791209 62.7816684,70.8791209 L74.0107846,70.8791209 C74.8173542,70.8791209 75.4716981,70.2244477 75.4716981,69.4157786 L75.4716981,59.111694 C75.4716981,58.3030246 74.8173542,57.6483516 74.0107846,57.6483516 L74.0107846,57.6483516 Z M72.5498711,67.9524361 L64.2425819,67.9524361 L64.2425819,60.5750363 L72.5498711,60.5750363 L72.5498711,67.9524361 Z" id="Shape"></path>
                    <path d="M74.0107846,25.5164835 L62.7816684,25.5164835 C61.9743413,25.5164835 61.3207547,26.1769899 61.3207547,26.9919204 L61.3207547,37.2725805 C61.3207547,38.0867463 61.9743413,38.7472527 62.7816684,38.7472527 L74.0107846,38.7472527 C74.8173542,38.7472527 75.4716981,38.0875108 75.4716981,37.2725805 L75.4716981,26.9919204 C75.4716981,26.1769899 74.8173542,25.5164835 74.0107846,25.5164835 L74.0107846,25.5164835 Z M72.5498711,35.797908 L64.2425819,35.797908 L64.2425819,28.4665927 L72.5498711,28.4665927 L72.5498711,35.797908 Z" id="Shape"></path>
                </g>
            </g>
        </g>
    </g>
</svg>