<?xml version="1.0" encoding="UTF-8"?>
<svg width="100px" height="94px" viewBox="0 0 100 94" version="1.1" xmlns="http://www.w3.org/2000/svg" xmlns:xlink="http://www.w3.org/1999/xlink">
    <!-- Generator: sketchtool 57.1 (101010) - https://sketch.com -->
    <title>7491931B-B3D6-425B-A7B4-F7544F1145B1</title>
    <desc>Created with sketchtool.</desc>
    <g id="Page-1" stroke="none" stroke-width="1" fill="none" fill-rule="evenodd">
        <g id="6" transform="translate(-154.000000, -898.000000)" fill="#3F3F3F" fill-rule="nonzero">
            <g id="Group-21" transform="translate(154.000000, 882.000000)">
                <g id="toilet" transform="translate(0.000000, 16.000000)">
                    <g>
                        <path d="M13.28125,4.01414809 L9.1796875,4.01414809 C8.04882812,4.01414809 7.12890625,4.92513575 7.12890625,6.04501229 L7.12890625,10.1067407 C7.12890625,11.2266172 8.04882812,12.1376049 9.1796875,12.1376049 L13.28125,12.1376049 C14.4121094,12.1376049 15.3320312,11.2266172 15.3320312,10.1067407 L15.3320312,6.04501229 C15.3320312,4.92513575 14.4121094,4.01414809 13.28125,4.01414809 Z M12.4023438,9.23637031 L10.0585938,9.23637031 L10.0585938,6.91538266 L12.4023438,6.91538266 L12.4023438,9.23637031 Z" id="Shape"></path>
                        <path d="M96.1535127,28.5326749 L91.3316378,28.5326749 L91.3316378,27.0836049 C91.3316378,25.7503909 90.2365206,24.6659094 88.8902316,24.6659094 L76.4894506,24.6659094 C75.1431616,24.6659094 74.0480444,25.7503909 74.0480444,27.0836049 L74.0480444,28.5326749 L69.2261695,28.5326749 C67.8798805,28.5326749 66.7847633,29.6171563 66.7847633,30.9503703 L66.7847633,43.6132921 C66.7853493,44.9465061 67.8806617,46.0309876 69.2267555,46.0309876 L70.7236304,46.0309876 L70.7236304,57.2185349 C70.7236304,57.9444238 70.7236304,58.3825102 71.1742164,58.82079 C71.215232,58.8606336 71.2585914,58.8979629 71.3035132,58.9323908 C71.3529273,58.9786172 71.4503882,59.0720369 71.5847632,59.2062674 L74.2523413,61.8759834 C74.6392553,62.2630081 75.1554663,62.4761521 75.7056616,62.4761521 C76.2556616,62.4761521 76.7718725,62.2630081 77.1585912,61.8759834 L79.1980443,59.8354484 L81.2371068,61.87579 C81.6240208,62.2628147 82.1402317,62.4761521 82.6902317,62.4761521 C83.2402317,62.4761521 83.756052,62.2630081 84.143552,61.87579 L86.1824191,59.8354484 L88.2216769,61.8759834 C88.6083956,62.2630081 89.1246066,62.4761521 89.6748019,62.4761521 C90.2246065,62.4761521 90.7406222,62.2632015 91.1281221,61.8759834 L93.7958955,59.2064608 C93.9259736,59.0762921 94.0212861,58.9846131 94.072458,58.936646 C94.3738252,58.714218 94.6382783,58.3262262 94.6527314,57.650432 C94.6550752,57.5401851 94.6566377,57.3873867 94.6566377,57.2179546 L94.6566377,46.0309876 L96.1535127,46.0309876 C97.4998017,46.0309876 98.5949188,44.9465061 98.5949188,43.6132921 L98.5949188,30.9503703 C98.5949188,29.6171563 97.4998017,28.5326749 96.1535127,28.5326749 Z M91.7279273,49.4536702 L91.7275367,49.4536702 C91.1466773,49.6461188 90.727732,50.1882628 90.727732,50.8282751 C90.727732,51.4684809 91.1468726,52.0104314 91.7275367,52.20288 L91.7275367,57.1521926 C91.7232398,57.1564477 91.7187476,57.1608963 91.7144508,57.1653448 L89.6755835,59.2056863 L87.6359351,57.1645712 C87.249021,56.7777399 86.7332007,56.5647893 86.1832007,56.5647893 C85.6332007,56.5647893 85.1169897,56.7781267 84.7298803,57.1651514 L82.6910131,59.2052995 L80.6519506,57.164958 C80.2650365,56.7777399 79.7488256,56.5647893 79.1986303,56.5647893 C78.6486302,56.5647893 78.1326146,56.7779333 77.7457005,57.164958 L75.7062474,59.2054929 L73.6673802,57.1651514 C73.662888,57.1607029 73.6583958,57.1560609 73.6539036,57.1516123 L73.6539036,52.2783121 C74.4556614,52.2698018 75.1031224,51.6243739 75.1031224,50.8284685 C75.1031224,50.0325632 74.4558567,49.3871353 73.6539036,49.378625 L73.6539036,46.0309872 L91.7279273,46.0309872 L91.7279273,49.4536702 L91.7279273,49.4536702 Z M95.6658173,43.1297527 L69.7150368,43.1297527 L69.7150368,31.4339093 L74.0486305,31.4339093 L74.0486305,32.404469 C74.0486305,33.7376829 75.1437476,34.8221644 76.4900366,34.8221644 L80.8593724,34.8221644 C81.6685521,34.8221644 82.3242162,34.1728681 82.3242162,33.3715472 C82.3242162,32.5702262 81.6685521,31.9209299 80.8593724,31.9209299 L76.9783179,31.9209299 L76.9783179,27.567144 L88.4025363,27.567144 L88.4025363,31.9209299 L87.8906222,31.9209299 C87.0814426,31.9209299 86.4257785,32.5702262 86.4257785,33.3715472 C86.4257785,34.1728681 87.0814426,34.8221644 87.8906222,34.8221644 L88.8908175,34.8221644 C90.2371066,34.8221644 91.3322237,33.7376829 91.3322237,32.404469 L91.3322237,31.4339093 L95.6658173,31.4339093 L95.6658173,43.1297527 L95.6658173,43.1297527 Z" id="Shape"></path>
                        <path d="M78.5205066,49.3778531 L77.5439441,49.3778531 C76.7347644,49.3778531 76.0791004,50.0271494 76.0791004,50.8284704 C76.0791004,51.6295979 76.7349597,52.2790876 77.5439441,52.2790876 L78.5205066,52.2790876 C79.3296863,52.2790876 79.9853504,51.6297914 79.9853504,50.8284704 C79.9853504,50.0271494 79.3296863,49.3778531 78.5205066,49.3778531 Z" id="Path"></path>
                        <path d="M88.2861316,49.3778531 L87.3095691,49.3778531 C86.5003894,49.3778531 85.8447254,50.0271494 85.8447254,50.8284704 C85.8447254,51.6295979 86.5005847,52.2790876 87.3095691,52.2790876 L88.2861316,52.2790876 C89.0953113,52.2790876 89.7509754,51.6297914 89.7509754,50.8284704 C89.7509754,50.0271494 89.0953113,49.3778531 88.2861316,49.3778531 Z" id="Path"></path>
                        <path d="M83.4033191,49.3778531 L82.4267566,49.3778531 C81.6175769,49.3778531 80.9619129,50.0271494 80.9619129,50.8284704 C80.9619129,51.6295979 81.6177722,52.2790876 82.4267566,52.2790876 L83.4033191,52.2790876 C84.2124988,52.2790876 84.8681629,51.6297914 84.8681629,50.8284704 C84.8681629,50.0271494 84.2124988,49.3778531 83.4033191,49.3778531 Z" id="Path"></path>
                        <path d="M98.535159,90.9782671 L50.1394545,90.9782671 L50.1394545,87.9079873 C50.1394545,86.5749667 49.044142,85.4902918 47.6980482,85.4902918 L44.686134,85.4902918 L39.9873058,73.366226 C42.3871105,72.3422836 44.5968762,70.8663289 46.5066419,68.9805264 C50.0107436,65.5203207 52.1513686,61.0353989 52.6462905,56.1947858 L53.688478,56.1947858 C55.0347671,56.1947858 56.1298844,55.1103043 56.1298844,53.7770903 L56.1298844,50.2232714 C56.1298844,48.8900574 55.0347671,47.8055759 53.688478,47.8055759 L45.1064466,47.8055759 C46.0107435,46.9266953 46.849806,45.9619381 47.612306,44.920008 L56.8332047,44.920008 C58.7177751,44.920008 60.2511735,43.4015019 60.2511735,41.5352344 L60.2511735,37.1849299 L60.2511735,17.4741357 L63.1480486,17.4741357 C64.4943377,17.4741357 65.5894549,16.3896543 65.5894549,15.0564403 L65.5894549,7.44360079 C65.5894549,6.11038681 64.4943377,5.02590533 63.1480486,5.02590533 L60.2511735,5.02590533 L60.2511735,3.50527159 C60.2511735,1.63900411 58.7177751,0.120497947 56.8332047,0.120497947 L6.63847672,0.120497947 C4.75390635,0.120497947 3.22050787,1.63900411 3.22050787,3.50527159 L3.22050787,37.1849299 L3.22050787,41.5352344 C3.22050787,43.4015019 4.75390635,44.920008 6.63847672,44.920008 L15.8591801,44.920008 C16.6216801,45.9619381 17.460938,46.9266953 18.3652349,47.8055759 L9.78320337,47.8055759 C8.43691427,47.8055759 7.34179705,48.8900574 7.34179705,50.2232714 L7.34179705,53.7770903 C7.34179705,55.1103043 8.43691427,56.1947858 9.78320337,56.1947858 L10.8251956,56.1947858 C11.3203128,61.0353989 13.4611332,65.5205141 16.9652348,68.9805264 C18.8750005,70.8663289 21.0845709,72.3420902 23.4843756,73.366226 L18.7855474,85.4902918 L15.7736332,85.4902918 C14.4273441,85.4902918 13.3322269,86.5749667 13.3322269,87.9079873 L13.3322269,90.9782671 L1.89042971,90.9782671 C1.08144531,90.9782671 0.425585918,91.6275634 0.425585918,92.4288844 C0.425585918,93.2300119 1.08144531,93.8795016 1.89042971,93.8795016 L98.535159,93.8795016 C99.3443387,93.8795016 100.000003,93.2300119 100.000003,92.4288844 C100.000003,91.6275634 99.3443387,90.9782671 98.535159,90.9782671 Z M60.2511732,7.92713983 L62.6597669,7.92713983 L62.6597669,14.572708 L60.2511732,14.572708 L60.2511732,7.92713983 Z M56.833203,42.0187731 L49.4330077,42.0187731 C50.0066405,40.9441558 50.5072264,39.8130611 50.929492,38.6355467 L57.3214842,38.6355467 L57.3214842,41.535234 L57.3214842,41.535234 C57.3214842,41.7973122 57.0978514,42.0187731 56.833203,42.0187731 Z M6.63847644,42.0187731 C6.373828,42.0187731 6.15019519,41.7973122 6.15019519,41.535234 L6.15019519,38.6355467 L12.5419921,38.6355467 C12.9642578,39.8130611 13.4648437,40.9441558 14.0384765,42.0187731 L6.63847644,42.0187731 Z M13.9095705,29.5492674 C13.9095705,17.974502 21.9062504,8.5578683 31.735743,8.5578683 C34.1164071,8.5578683 36.42754,9.1021399 38.6052745,10.1759835 C39.3294932,10.5328354 40.2089855,10.2409712 40.5695323,9.52397941 C40.9300792,8.80679423 40.6353527,7.93603703 39.9111339,7.57879834 C37.3242197,6.30322222 34.5736337,5.65663374 31.7359383,5.65663374 C20.291016,5.65663374 10.9800782,16.3747613 10.9800782,29.5492674 C10.9800782,31.6878641 11.2277344,33.7605061 11.6876954,35.7343127 L6.15019519,35.7343127 L6.15019519,3.50527161 C6.15019519,3.24319342 6.37382801,3.02173252 6.63847646,3.02173252 L56.8332048,3.02173252 C57.0978532,3.02173252 57.3214861,3.24319342 57.3214861,3.50527161 L57.3214861,35.7343127 L51.7839859,35.7343127 C52.2439468,33.7606995 52.4916031,31.6878641 52.4916031,29.5492674 C52.4916031,22.8874526 50.0515639,16.4793991 45.7970716,11.9683662 C45.2447278,11.3828971 44.3177747,11.3517572 43.726759,11.8983498 C43.1355481,12.4451358 43.1039074,13.3630864 43.6560559,13.9487489 C47.4093763,17.9284691 49.5619155,23.6146954 49.5619155,29.5494608 C49.5619155,37.3640328 45.9150403,44.1923785 40.5216808,47.8057694 L22.9496098,47.8057694 C17.5564456,44.1921851 13.9095705,37.3640328 13.9095705,29.5492674 Z M10.2714842,53.2935499 L10.2714842,50.7068092 L53.2003915,50.7068092 L53.2003915,53.2935499 L10.2714842,53.2935499 Z M19.0333981,66.9260633 C16.0841794,64.013804 14.2580075,60.2570919 13.775195,56.1947831 L49.6962888,56.1947831 C49.2136716,60.2570919 47.3874997,64.013804 44.4378904,66.9260633 C41.031445,70.2899482 36.5205075,72.1424833 31.7357419,72.1424833 C26.9509763,72.1424833 22.4400388,70.2899482 19.0333981,66.9260633 Z M47.2097663,90.97827 L16.2619142,90.97827 L16.2619142,88.3915293 L33.0078129,88.3915293 C33.8167973,88.3915293 34.4726567,87.742233 34.4726567,86.940912 C34.4726567,86.1397844 33.8167973,85.4902947 33.0078129,85.4902947 L21.9234377,85.4902947 L26.2513675,74.3232493 C28.018555,74.7978913 29.8589848,75.043916 31.7359379,75.043916 C33.6128911,75.043916 35.4531255,74.7980847 37.2201177,74.3234427 L41.5480475,85.4902947 L39.8437506,85.4902947 C39.0347662,85.4902947 38.3789068,86.1397844 38.3789068,86.940912 C38.3789068,87.742233 39.0347662,88.3915293 39.8437506,88.3915293 L47.2097663,88.3915293 L47.2097663,90.97827 Z" id="Shape"></path>
                        <path d="M85.2314461,7.21498351 C82.263282,6.29006993 81.9056648,5.93167076 80.9791024,2.95423044 C80.6990242,2.05716872 79.8759774,1.45448559 78.9308602,1.45448559 C77.9841805,1.45448559 77.160743,2.0581358 76.882618,2.95558435 C75.9564462,5.93186417 75.598829,6.29006993 72.6316415,7.21479009 C71.7320321,7.49408227 71.1275399,8.31106992 71.1275399,9.24758844 C71.1273447,10.1839135 71.7318368,11.0010946 72.630079,11.28 C75.598243,12.2049135 75.9560555,12.5633127 76.8818368,15.5380452 C77.1605477,16.4366542 77.9839852,17.0406913 78.9306649,17.0406913 C79.8759774,17.0406913 80.6992195,16.4378147 80.9792977,15.5395925 C81.9054695,12.5633127 82.263282,12.2051069 85.2298836,11.2805802 C86.1292976,11.0014814 86.7337898,10.1843004 86.7337898,9.24739502 C86.7337898,8.31068309 86.1292976,7.49388886 85.2314461,7.21498351 Z M78.9308605,12.6312019 C78.1689464,10.9335927 77.2359386,10.0079055 75.5250011,9.24739513 C77.2359386,8.48727164 78.1687511,7.56197118 78.9308605,5.86358838 C79.6925793,7.56139093 80.6255871,8.48707822 82.3363293,9.24739513 C80.6255871,10.007712 79.6925793,10.9333993 78.9308605,12.6312019 Z" id="Shape"></path>
                        <path d="M12.7730464,76.0436812 C10.1755856,75.2340433 9.90019497,74.9582326 9.0892575,72.3523436 C8.81914032,71.4864218 8.02441379,70.9046275 7.11152319,70.9046275 C6.1970701,70.9046275 5.40214825,71.4877757 5.1339842,72.3533107 C4.32343735,74.9582326 4.04804674,75.2342367 1.4507812,76.0436812 C0.583203105,76.3140762 0,77.1024384 0,78.0058829 C0,78.9095208 0.58359373,79.6982698 1.45058589,79.9675043 C4.02187486,80.7690188 4.33183579,81.0792574 5.13359357,83.6559406 C5.40214825,84.5234098 6.19726541,85.106558 7.11171851,85.106558 C8.0246091,85.106558 8.81933563,84.5245703 9.08964813,83.6578748 C9.89218716,81.0792574 10.2019528,80.7686319 12.7716792,79.9678912 C13.6400386,79.6980763 14.223437,78.9097142 14.223437,78.0056895 C14.223437,77.102245 13.6404292,76.3138828 12.7730464,76.0436812 Z M7.11210934,80.6413641 C6.49179685,79.3826151 5.72714842,78.624039 4.45761718,78.0058826 C5.7269531,77.3875328 6.49160154,76.6293435 7.11210934,75.3702077 C7.73242184,76.6291501 8.49687495,77.3875328 9.76640619,78.0056892 C8.49707027,78.624039 7.73242184,79.3824217 7.11210934,80.6413641 Z" id="Shape"></path>
                        <path d="M68.0289066,63.3480687 C65.5984379,62.5904597 65.3406254,62.3324432 64.5824222,59.8952129 C64.3166019,59.0410894 63.5333988,58.4672253 62.6335941,58.4672253 C61.7326176,58.4672253 60.9496098,59.0418631 60.6855473,59.894826 C59.9269535,62.3322498 59.6693363,62.5902663 57.2404301,63.3474885 C56.3845707,63.6130481 55.8097661,64.3898053 55.8097661,65.279904 C55.8097661,66.1703896 56.3845707,66.9473402 57.2386723,67.212513 C59.6689457,67.9699286 59.9267582,68.2281385 60.6851566,70.6647886 C60.9501957,71.5191054 61.7330082,72.093163 62.6335941,72.093163 C63.5330082,72.093163 64.316016,71.5198791 64.5822269,70.6661425 C65.341016,68.2283319 65.5986332,67.970122 68.0277347,67.2130933 C68.8830081,66.9473402 69.4574222,66.1703896 69.4574222,65.2800974 C69.4574222,64.3898053 68.8830081,63.6134349 68.0289066,63.3480687 Z M62.6337897,67.6132703 C62.0726569,66.5251139 61.3810553,65.8394555 60.283399,65.2800975 C61.38086,64.7209329 62.0724616,64.0352745 62.6337897,62.9469247 C63.1951178,64.0350811 63.8863288,64.7205461 64.9841804,65.2797107 C63.8863288,65.8392621 63.1951178,66.5247271 62.6337897,67.6132703 Z" id="Shape"></path>
                        <path d="M20.5664062,19.2330576 C20.2949219,18.9644033 19.9160156,18.8096708 19.53125,18.8096708 C19.1445312,18.8096708 18.7675781,18.9644033 18.4960938,19.2330576 C18.2226562,19.5038395 18.0664062,19.8771317 18.0664062,20.2602881 C18.0664062,20.6413169 18.2226562,21.0144156 18.4960938,21.2853909 C18.7675781,21.5561728 19.1464844,21.7109053 19.53125,21.7109053 C19.9160156,21.7109053 20.2949219,21.5561728 20.5664062,21.2853909 C20.8398438,21.0146091 20.9960938,20.6413169 20.9960938,20.2602881 C20.9960938,19.8773251 20.8398438,19.5040329 20.5664062,19.2330576 Z" id="Path"></path>
                        <path d="M45.1757812,19.2330576 C44.9042969,18.9642099 44.5253906,18.8096708 44.140625,18.8096708 C43.7558594,18.8096708 43.3769531,18.9644033 43.1054688,19.2330576 C42.8320312,19.5038395 42.6757812,19.8771317 42.6757812,20.2602881 C42.6757812,20.6413169 42.8320312,21.0144156 43.1054688,21.2853909 C43.3769531,21.5561728 43.7558594,21.7109053 44.140625,21.7109053 C44.5253906,21.7109053 44.9042969,21.5561728 45.1757812,21.2853909 C45.4492188,21.0146091 45.6054688,20.6413169 45.6054688,20.2602881 C45.6054688,19.8773251 45.4492188,19.5040329 45.1757812,19.2330576 Z" id="Path"></path>
                        <path d="M20.5664062,37.6075443 C20.2949219,37.33889 19.9160156,37.1822233 19.53125,37.1822233 C19.1445312,37.1822233 18.7675781,37.33889 18.4960938,37.6075443 C18.2226562,37.8783262 18.0664062,38.2516184 18.0664062,38.6347747 C18.0664062,39.0158036 18.2226562,39.3889023 18.4960938,39.6598776 C18.7675781,39.9306595 19.1464844,40.0853921 19.53125,40.0853921 C19.9160156,40.0853921 20.2929688,39.9306595 20.5664062,39.6598776 C20.8398438,39.3890957 20.9960938,39.0158036 20.9960938,38.6347747 C20.9960938,38.2518118 20.8398438,37.8785196 20.5664062,37.6075443 Z" id="Path"></path>
                        <path d="M45.1757812,37.6075443 C44.9042969,37.3386965 44.5253906,37.1822233 44.140625,37.1822233 C43.7539062,37.1822233 43.3769531,37.33889 43.1054688,37.6075443 C42.8320312,37.8783262 42.6757812,38.2516184 42.6757812,38.6347747 C42.6757812,39.0158036 42.8320312,39.3889023 43.1054688,39.6598776 C43.3769531,39.9306595 43.7558594,40.0853921 44.140625,40.0853921 C44.5253906,40.0853921 44.9023438,39.9306595 45.1757812,39.6598776 C45.4492188,39.3890957 45.6054688,39.0158036 45.6054688,38.6347747 C45.6054688,38.2518118 45.4492188,37.8785196 45.1757812,37.6075443 Z" id="Path"></path>
                    </g>
                </g>
            </g>
        </g>
    </g>
</svg>